<svg xmlns="http://www.w3.org/2000/svg" xmlns:xlink="http://www.w3.org/1999/xlink" width="1920" zoomAndPan="magnify" viewBox="0 0 1440 809.999993" height="1080" preserveAspectRatio="xMidYMid meet" version="1.0"><defs><clipPath id="id1"><path d="M 720 243 L 750 243 L 750 409 L 720 409 Z M 720 243 " clip-rule="nonzero"/></clipPath></defs><path stroke-linecap="butt" transform="matrix(0.180121, 0, 0, 0.17994, 942.216871, 472.9313)" fill-opacity="1" fill="#ffffff" fill-rule="evenodd" stroke-linejoin="miter" d="M -1158.500752 131.957762 C -1003.960305 138.231554 -839.942707 8.240315 -645.346659 -393.195558 C -1214.257627 -211.950257 -1656.64755 -329.524164 -1612.059399 -407.089077 C -1581.307455 -460.557418 -1340.86542 -540.18465 -684.70828 -433.030883 C -684.70828 -433.030883 -888.954973 -449.551146 -1111.18006 -463.075618 C -1368.147469 -478.705827 -1558.362775 -456.888661 -1572.871273 -395.909136 C -1578.683347 -319.798701 -943.020274 -302.214715 -644.934609 -394.302698 C -720.730127 -134.428761 -892.424868 198.842032 -1180.447838 181.258047 C -1362.964314 167.038898 -1522.796351 -75.945729 -1632.792022 -294.57328 C -1454.287612 -18.331041 -1318.115921 123.426273 -1158.522439 131.957762 Z M -1158.500752 131.957762 " stroke="#000000" stroke-width="1" stroke-opacity="1" stroke-miterlimit="4"/><path stroke-linecap="butt" transform="matrix(0.180121, 0, 0, 0.17994, 942.216871, 472.9313)" fill-opacity="1" fill="#ffffff" fill-rule="evenodd" stroke-linejoin="miter" d="M -673.170879 -282.655245 C -673.170879 -282.655245 -599.674166 -416.814541 -482.955574 -404.288665 C -310.349986 -385.7495 -608.544085 15.295617 -835.80052 12.212993 C -798.846138 1.336972 -754.973653 -13.62027 -683.537191 -66.762981 C -596.312706 -131.650058 -395.319039 -324.531181 -533.160617 -356.182354 C -584.53675 -367.991846 -673.170879 -282.655245 -673.170879 -282.655245 Z M -673.170879 -282.655245 " stroke="#000000" stroke-width="1" stroke-opacity="1" stroke-miterlimit="4"/><path stroke-linecap="butt" transform="matrix(0.130577, 0, 0, 0.142978, 879.74821, 464.176965)" fill-opacity="1" fill="#ffffff" fill-rule="evenodd" stroke-linejoin="miter" d="M -1486.085571 150.090807 C -1486.085571 150.090807 -2494.199177 266.530977 -1589.652125 460.58882 C -389.452775 718.084973 13.146498 354.803663 14.373023 305.462756 C 19.518444 102.006645 -682.083634 132.687619 -682.083634 132.687619 C -477.463405 157.76788 -466.484513 137.386753 -230.154133 186.891583 C 6.176248 236.396414 -319.181881 524.57354 -816.73212 503.126911 C -1697.017914 465.151351 -2299.929621 308.331413 -1486.145401 150.090807 Z M -1486.085571 150.090807 " stroke="#000000" stroke-width="1.132" stroke-opacity="1" stroke-miterlimit="4"/><path fill="#ffffff" d="M 725.074219 243.171875 C 718.378906 257.34375 716.246094 294.703125 741.167969 312.664062 C 766.089844 330.625 724.503906 407.625 722.625 407.558594 C 720.75 407.488281 749.523438 339.585938 737.976562 323.40625 C 726.425781 307.226562 725.074219 243.171875 725.074219 243.171875 Z M 725.074219 243.171875 " fill-opacity="1" fill-rule="evenodd"/><g clip-path="url(#id1)"><path stroke-linecap="butt" transform="matrix(0.113122, 0, 0, 0.107414, 855.697979, 450.104709)" fill="none" stroke-linejoin="miter" d="M -1154.714157 -1926.49709 C -1213.900725 -1794.560194 -1232.75479 -1446.753006 -1012.445393 -1279.540809 C -792.135996 -1112.328612 -1159.75572 -395.476323 -1176.365253 -396.09455 C -1192.940254 -396.749143 -938.583042 -1028.904345 -1040.657427 -1179.533514 C -1142.766343 -1330.162683 -1154.714157 -1926.49709 -1154.714157 -1926.49709 Z M -1154.714157 -1926.49709 " stroke="#000000" stroke-width="1" stroke-opacity="1" stroke-miterlimit="4"/></g><path stroke-linecap="butt" transform="matrix(0.113122, 0, 0, 0.107414, 855.697979, 450.104709)" fill-opacity="1" fill="#ffffff" fill-rule="evenodd" stroke-linejoin="miter" d="M -1290.387452 -1752.011636 C -1349.608551 -1637.494192 -1368.497147 -1335.617627 -1148.118687 -1190.516133 C -927.774759 -1045.378274 -1359.48449 -395.476323 -1376.059491 -396.021817 C -1392.634493 -396.567312 -1074.187274 -972.972993 -1176.330721 -1103.709802 C -1278.439638 -1234.446611 -1290.387452 -1752.011636 -1290.387452 -1752.011636 Z M -1290.387452 -1752.011636 " stroke="#000000" stroke-width="0.932" stroke-opacity="1" stroke-miterlimit="4"/><path stroke-linecap="butt" transform="matrix(0.113122, 0, 0, 0.107414, 855.697979, 450.104709)" fill-opacity="1" fill="#ffffff" fill-rule="evenodd" stroke-linejoin="miter" d="M -878.533192 -1703.499006 C -937.754292 -1593.745546 -1020.6293 -1296.4875 -800.25084 -1157.42281 C -579.872381 -1018.321755 -1011.616643 -395.512689 -1028.226176 -396.058184 C -1044.801177 -396.567312 -726.319427 -948.971242 -828.462874 -1074.253107 C -930.571791 -1199.534973 -878.533192 -1703.499006 -878.533192 -1703.499006 Z M -878.533192 -1703.499006 " stroke="#000000" stroke-width="0.912" stroke-opacity="1" stroke-miterlimit="4"/></svg>