<svg xmlns="http://www.w3.org/2000/svg" xmlns:xlink="http://www.w3.org/1999/xlink" width="1920" zoomAndPan="magnify" viewBox="0 0 1440 809.999993" height="1080" preserveAspectRatio="xMidYMid meet" version="1.0"><defs><clipPath id="id1"><path d="M 495.390625 488 L 691.140625 488 L 691.140625 505 L 495.390625 505 Z M 495.390625 488 " clip-rule="nonzero"/></clipPath><clipPath id="id2"><path d="M 495.390625 425.992188 L 691.140625 425.992188 L 691.140625 443 L 495.390625 443 Z M 495.390625 425.992188 " clip-rule="nonzero"/></clipPath><clipPath id="id3"><path d="M 495.390625 550 L 691.140625 550 L 691.140625 566.992188 L 495.390625 566.992188 Z M 495.390625 550 " clip-rule="nonzero"/></clipPath></defs><g clip-path="url(#id1)"><path fill="#ffffff" d="M 682.859375 504.625 L 503.671875 504.625 C 499.175781 504.625 495.527344 500.980469 495.527344 496.492188 C 495.527344 492 499.175781 488.355469 503.671875 488.355469 L 682.859375 488.355469 C 687.355469 488.355469 691.003906 492 691.003906 496.492188 C 691.003906 500.980469 687.355469 504.625 682.859375 504.625 Z M 682.859375 504.625 " fill-opacity="1" fill-rule="nonzero"/></g><g clip-path="url(#id2)"><path fill="#ffffff" d="M 682.859375 442.261719 L 503.671875 442.261719 C 499.175781 442.261719 495.527344 438.617188 495.527344 434.125 C 495.527344 429.636719 499.175781 425.992188 503.671875 425.992188 L 682.859375 425.992188 C 687.355469 425.992188 691.003906 429.636719 691.003906 434.125 C 691.003906 438.617188 687.355469 442.261719 682.859375 442.261719 Z M 682.859375 442.261719 " fill-opacity="1" fill-rule="nonzero"/></g><g clip-path="url(#id3)"><path fill="#ffffff" d="M 682.859375 566.992188 L 503.671875 566.992188 C 499.175781 566.992188 495.527344 563.347656 495.527344 558.855469 C 495.527344 554.367188 499.175781 550.722656 503.671875 550.722656 L 682.859375 550.722656 C 687.355469 550.722656 691.003906 554.367188 691.003906 558.855469 C 691.003906 563.347656 687.355469 566.992188 682.859375 566.992188 Z M 682.859375 566.992188 " fill-opacity="1" fill-rule="nonzero"/></g></svg>